<svg xmlns="http://www.w3.org/2000/svg" width="172" height="172" viewBox="0 0 100 100"><rect width="100" height="100" rx="20" fill="#0d6efd"></rect><path fill="#fff" d="M55.45 19.50L55.45 19.50Q55.95 19.30 57 19.05Q58.05 18.80 59.15 18.80L59.15 18.80Q63.55 18.80 63.55 22.50L63.55 22.50L63.55 65.30Q63.55 69.80 62.25 72.85Q60.95 75.90 58.70 77.75Q56.45 79.60 53.50 80.40Q50.55 81.20 47.35 81.20L47.35 81.20Q41.65 81.20 39.05 79.85Q36.45 78.50 36.45 76.30L36.45 76.30Q36.45 74.90 37.05 73.90Q37.65 72.90 38.15 72.40L38.15 72.40Q39.65 73.10 41.75 73.70Q43.85 74.30 46.15 74.30L46.15 74.30Q50.65 74.30 53.05 72.15Q55.45 70 55.45 64.90L55.45 64.90L55.45 19.50Z"></path></svg>
